<svg width="21" height="19" viewBox="0 0 21 19" fill="none" xmlns="http://www.w3.org/2000/svg">
<path d="M4.01746 10.3486L5.10448 11.4365" stroke="#A7A7A7" stroke-miterlimit="10" stroke-linecap="square"/>
<path d="M5.10448 10.3486L4.01746 11.4365" stroke="#A7A7A7" stroke-miterlimit="10" stroke-linecap="square"/>
<path d="M7.91183 10.3486L8.99885 11.4365" stroke="#A7A7A7" stroke-miterlimit="10" stroke-linecap="square"/>
<path d="M8.99885 10.3486L7.91183 11.4365" stroke="#A7A7A7" stroke-miterlimit="10" stroke-linecap="square"/>
<path d="M11.8062 10.3486L12.8933 11.4365" stroke="#A7A7A7" stroke-miterlimit="10" stroke-linecap="square"/>
<path d="M12.8933 10.3486L11.8062 11.4365" stroke="#A7A7A7" stroke-miterlimit="10" stroke-linecap="square"/>
<path d="M18.578 2.27368H20V18.4238H1V2.27368H3.39022" stroke="#A7A7A7" stroke-miterlimit="10" stroke-linecap="square"/>
<path d="M6.48685 0.576416H4.04486V3.94965H6.48685V0.576416Z" stroke="#A7A7A7" stroke-miterlimit="10" stroke-linecap="square"/>
<path d="M16.9551 0.576416H14.5132V3.94965H16.9551V0.576416Z" stroke="#A7A7A7" stroke-miterlimit="10" stroke-linecap="square"/>
<path d="M1 6.11938H18.1487" stroke="#A7A7A7" stroke-miterlimit="10" stroke-linecap="square"/>
<path d="M3.85001 8.44458H5.27196" stroke="#A7A7A7" stroke-miterlimit="10" stroke-linecap="square"/>
<path d="M7.74438 8.44458H9.16634" stroke="#A7A7A7" stroke-miterlimit="10" stroke-linecap="square"/>
<path d="M11.6388 8.44458H13.0607" stroke="#A7A7A7" stroke-miterlimit="10" stroke-linecap="square"/>
<path d="M15.5362 8.44458H16.9551" stroke="#A7A7A7" stroke-miterlimit="10" stroke-linecap="square"/>
<path d="M15.5362 11.0068H16.9551" stroke="#A7A7A7" stroke-miterlimit="10" stroke-linecap="square"/>
<path d="M3.85001 13.5728H5.27196" stroke="#A7A7A7" stroke-miterlimit="10" stroke-linecap="square"/>
<path d="M7.74438 13.5728H9.16634" stroke="#A7A7A7" stroke-miterlimit="10" stroke-linecap="square"/>
<path d="M11.6388 13.5728H13.0607" stroke="#A7A7A7" stroke-miterlimit="10" stroke-linecap="square"/>
<path d="M15.5362 13.5728H16.9551" stroke="#A7A7A7" stroke-miterlimit="10" stroke-linecap="square"/>
<path d="M3.85001 16.1384H5.27196" stroke="#A7A7A7" stroke-miterlimit="10" stroke-linecap="square"/>
<path d="M7.74438 16.1384H9.16634" stroke="#A7A7A7" stroke-miterlimit="10" stroke-linecap="square"/>
<path d="M11.6388 16.1384H13.0607" stroke="#A7A7A7" stroke-miterlimit="10" stroke-linecap="square"/>
<path d="M15.5362 16.1384H16.9551" stroke="#A7A7A7" stroke-miterlimit="10" stroke-linecap="square"/>
<path d="M8.10977 2.27368H14.5131" stroke="#A7A7A7" stroke-miterlimit="10" stroke-linecap="square"/>
</svg>
