<svg width="27" height="22" viewBox="0 0 27 22" fill="none" xmlns="http://www.w3.org/2000/svg">
<path d="M9.89603 7.25098L9.75921 8.00031C9.47415 9.77285 7.9196 11.1003 6.1218 11.1003C6.1218 11.1003 6.1218 11.1003 6.118 11.1003H5.44145C4.63567 11.1003 3.92492 11.6215 3.67786 12.3898C3.20656 13.8618 2.42738 16.3076 1.83065 18.1791C1.42016 19.4647 2.37797 20.7732 3.72347 20.7732H22.7087C24.0542 20.7732 25.012 19.4609 24.6015 18.1791L22.7543 12.3936C22.5072 11.6253 21.7965 11.1041 20.9907 11.1041H20.3141C18.5163 11.1041 16.9618 9.77284 16.6767 8.00411L16.5399 7.25477" stroke="white" stroke-width="1.5" stroke-miterlimit="10" stroke-linecap="square"/>
<path d="M17.8474 5.19239C18.6494 5.37877 18.733 5.57656 18.733 5.57656L19.1435 7.84359C19.2271 8.42556 19.725 8.85538 20.3141 8.85538H24.1302C24.6851 8.85538 25.1564 8.44077 25.2286 7.88923L25.4187 6.41338C25.4339 6.28786 25.4377 6.15473 25.4187 6.0292C24.7801 2.09235 18.8774 0.772461 13.218 0.772461C7.71436 0.772461 1.53039 2.0467 1.00968 6.05203C0.994474 6.16614 0.998278 6.28026 1.01348 6.39437L1.20733 7.89303C1.27954 8.44457 1.74704 8.85918 2.30577 8.85918H6.12181C6.71094 8.85918 7.20885 8.42936 7.29247 7.84739L7.70296 5.58037C7.70296 5.58037 8.04503 4.85385 13.218 4.85385C15.0652 4.85385 16.2967 4.94515 17.1138 5.06307C17.4103 5.1011 17.6498 5.14675 17.8474 5.19239Z" stroke="white" stroke-width="1.5" stroke-miterlimit="10" stroke-linecap="square"/>
<path d="M13.218 16.9384C14.658 16.9384 15.8253 15.7702 15.8253 14.3291C15.8253 12.888 14.658 11.7197 13.218 11.7197C11.778 11.7197 10.6106 12.888 10.6106 14.3291C10.6106 15.7702 11.778 16.9384 13.218 16.9384Z" stroke="white" stroke-width="1.5" stroke-miterlimit="10" stroke-linecap="square"/>
</svg>
