<svg width="52" height="52" viewBox="0 0 52 52" fill="none" xmlns="http://www.w3.org/2000/svg">
<path d="M2.08696 25.9998C1.3913 24.3259 1 22.4889 1 20.565C1 12.7607 7.32609 6.43457 15.1304 6.43457C22.9348 6.43457 29.2609 12.7607 29.2609 20.565C29.2609 28.3694 22.9348 34.6954 15.1304 34.6954C10.7609 34.6954 6.8587 32.7063 4.26087 29.5976" stroke="#7A7A7A" stroke-width="2" stroke-miterlimit="10" stroke-linejoin="round"/>
<path d="M15.1304 21.6519V10.7823" stroke="#7A7A7A" stroke-width="2" stroke-miterlimit="10" stroke-linejoin="round"/>
<path d="M15.1304 6.43478V1" stroke="#7A7A7A" stroke-width="2" stroke-miterlimit="10" stroke-linejoin="round"/>
<path d="M18.3913 1H11.8696" stroke="#7A7A7A" stroke-width="2" stroke-miterlimit="10" stroke-linejoin="round"/>
<path d="M23.8261 4.26105L21.6522 8.60887" stroke="#7A7A7A" stroke-width="2" stroke-miterlimit="10" stroke-linejoin="round"/>
<path d="M6.43481 4.26105L8.60873 8.60887" stroke="#7A7A7A" stroke-width="2" stroke-miterlimit="10" stroke-linejoin="round"/>
<path d="M10.7826 29.261H4.26086V35.7828" stroke="#7A7A7A" stroke-width="2" stroke-miterlimit="10" stroke-linejoin="round"/>
<path d="M16.2174 45.5648H14.0435" stroke="#7A7A7A" stroke-width="2" stroke-miterlimit="10" stroke-linejoin="round"/>
<path d="M15.1304 50.9998C18.1319 50.9998 20.5652 48.5665 20.5652 45.565C20.5652 42.5634 18.1319 40.1302 15.1304 40.1302C12.1289 40.1302 9.69562 42.5634 9.69562 45.565C9.69562 48.5665 12.1289 50.9998 15.1304 50.9998Z" stroke="#7A7A7A" stroke-width="2" stroke-miterlimit="10" stroke-linejoin="round"/>
<path d="M41.2174 45.5648H39.0435" stroke="#7A7A7A" stroke-width="2" stroke-miterlimit="10" stroke-linejoin="round"/>
<path d="M40.1304 50.9998C43.1319 50.9998 45.5652 48.5665 45.5652 45.565C45.5652 42.5634 43.1319 40.1302 40.1304 40.1302C37.1289 40.1302 34.6956 42.5634 34.6956 45.565C34.6956 48.5665 37.1289 50.9998 40.1304 50.9998Z" stroke="#7A7A7A" stroke-width="2" stroke-miterlimit="10" stroke-linejoin="round"/>
<path d="M45.5652 46.6521H48.8261C50.0326 46.6521 51 45.6738 51 44.4782V33.6086C51 32.413 50.0326 31.4347 48.8261 31.4347L45.8153 15.8043C45.6196 14.7825 44.7283 14.0434 43.6848 14.0434H31.4348" stroke="#7A7A7A" stroke-width="2" stroke-miterlimit="10" stroke-linejoin="round"/>
<path d="M1 36.8698V44.4785C1 45.6742 1.97826 46.6524 3.17391 46.6524H9.69565" stroke="#7A7A7A" stroke-width="2" stroke-miterlimit="10" stroke-linejoin="round"/>
<path d="M19.4783 46.6522H34.6957" stroke="#7A7A7A" stroke-width="2" stroke-miterlimit="10" stroke-linejoin="round"/>
<path d="M48.8261 31.4347H40.1305C38.9239 31.4347 37.9565 30.4564 37.9565 29.2608V14.0434" stroke="#7A7A7A" stroke-width="2" stroke-miterlimit="10" stroke-linejoin="round"/>
</svg>
