<svg width="52" height="52" viewBox="0 0 52 52" fill="none" xmlns="http://www.w3.org/2000/svg">
<path d="M43.3913 12.9562H8.60864V39.0432H43.3913V12.9562Z" stroke="#7A7A7A" stroke-width="2" stroke-miterlimit="10" stroke-linejoin="round"/>
<path d="M21.6522 46.6521H7.52174C3.92391 46.6521 1 43.7282 1 40.1303V11.8695C1 8.27163 3.92391 5.34772 7.52174 5.34772H24.913" stroke="#7A7A7A" stroke-width="2" stroke-miterlimit="10" stroke-linejoin="round"/>
<path d="M30.3478 5.34772H44.4782C48.076 5.34772 51 8.27163 51 11.8695V40.1303C51 43.7282 48.076 46.6521 44.4782 46.6521H27.0869" stroke="#7A7A7A" stroke-width="2" stroke-miterlimit="10" stroke-linejoin="round"/>
<path d="M32.5218 23.8258L26 20.5649L19.4783 23.8258V12.9562H32.5218V23.8258Z" stroke="#7A7A7A" stroke-width="2" stroke-miterlimit="10" stroke-linejoin="round"/>
<path d="M11.8695 34.6956H18.3912" stroke="#7A7A7A" stroke-width="2" stroke-miterlimit="10" stroke-linejoin="round"/>
<path d="M11.8695 30.3479H22.7391" stroke="#7A7A7A" stroke-width="2" stroke-miterlimit="10" stroke-linejoin="round"/>
<path d="M20.5652 9.69565L24.913 5.34783L20.5652 1" stroke="#7A7A7A" stroke-width="2" stroke-miterlimit="10" stroke-linejoin="round"/>
<path d="M31.4347 42.3041L27.0869 46.652L31.4347 50.9998" stroke="#7A7A7A" stroke-width="2" stroke-miterlimit="10" stroke-linejoin="round"/>
</svg>
