<svg width="17" height="17" viewBox="0 0 17 17" fill="none" xmlns="http://www.w3.org/2000/svg">
<path d="M14.7133 16.9858H2.28668C1.0251 16.9858 0 15.9604 0 14.7011V2.28461C0 1.02536 1.02629 0 2.28668 0H14.7133C15.9737 0 17 1.02536 17 2.28461V14.7011C17 15.9616 15.9737 16.9858 14.7133 16.9858ZM2.28668 1.32186C1.75462 1.32186 1.32306 1.75421 1.32306 2.28461V14.7011C1.32306 15.2327 1.75462 15.6639 2.28668 15.6639H14.7133C15.2454 15.6639 15.6769 15.2315 15.6769 14.7011V2.28461C15.6769 1.75421 15.2442 1.32186 14.7133 1.32186H2.28668Z" fill="#A7A7A7"/>
<path fill-rule="evenodd" clip-rule="evenodd" d="M13.4588 8.71296C13.4588 11.411 11.2702 13.5976 8.56973 13.5976C5.86921 13.5976 3.68066 11.411 3.68066 8.71296C3.68066 6.01489 5.86921 3.82715 8.56973 3.82715C11.2702 3.82833 13.4588 6.01489 13.4588 8.71296Z" fill="#A7A7A7"/>
<path fill-rule="evenodd" clip-rule="evenodd" d="M14.5585 3.3506C14.5585 3.87864 14.1305 4.30745 13.6008 4.30745C13.0711 4.30745 12.6431 3.87864 12.6431 3.3506C12.6431 2.82138 13.0711 2.39258 13.6008 2.39258C14.1293 2.39258 14.5585 2.82138 14.5585 3.3506Z" fill="#A7A7A7"/>
</svg>
