<svg width="24" height="22" viewBox="0 0 24 22" fill="none" xmlns="http://www.w3.org/2000/svg">
<path d="M7.44299 12.0122H4.85945L2 18.9717H22.8094L19.9531 12.0122H17.3695" stroke="white" stroke-width="1.5" stroke-miterlimit="10" stroke-linecap="square"/>
<path d="M17.5733 5.94734C17.5733 6.75687 17.3883 7.52249 17.056 8.20652C16.2189 9.93228 12.4031 15.2696 12.4031 15.2696C12.4031 15.2696 8.68144 9.9919 7.81608 8.33831C7.44298 7.6229 7.23291 6.81022 7.23291 5.94734C7.23291 3.09199 9.54681 0.773193 12.4031 0.773193C15.2594 0.776331 17.5733 3.09199 17.5733 5.94734Z" stroke="white" stroke-width="1.5" stroke-miterlimit="10" stroke-linecap="square"/>
<path d="M12.4062 8.056C13.5699 8.056 14.5132 7.11196 14.5132 5.94743C14.5132 4.7829 13.5699 3.83887 12.4062 3.83887C11.2426 3.83887 10.2993 4.7829 10.2993 5.94743C10.2993 7.11196 11.2426 8.056 12.4062 8.056Z" stroke="white" stroke-width="1.5" stroke-miterlimit="10" stroke-linecap="square"/>
<path d="M2 20.7732H22.8094" stroke="white" stroke-width="1.5" stroke-miterlimit="10" stroke-linecap="square"/>
</svg>
