<svg width="248" height="60" viewBox="0 0 248 60" fill="none" xmlns="http://www.w3.org/2000/svg">
<path d="M79.902 48.42C76.234 48.42 73.462 47.426 71.586 45.438C69.71 43.422 68.772 40.454 68.772 36.534V18.6H74.106V36.45C74.106 41.574 76.038 44.136 79.902 44.136C81.806 44.136 83.248 43.492 84.228 42.204C85.208 40.916 85.698 38.998 85.698 36.45V18.6H90.99V36.534C90.99 40.454 90.052 43.422 88.176 45.438C86.3 47.426 83.542 48.42 79.902 48.42ZM119.85 18.6V48H114.894L102.084 27.378V48H96.7916V18.6H102.042L114.558 38.886V18.6H119.85Z" fill="#FF5E41"/>
<path d="M125.955 18.6H135.363C138.751 18.6 141.313 19.384 143.049 20.952C144.813 22.492 145.695 24.774 145.695 27.798C145.695 31.018 144.785 33.468 142.965 35.148C141.173 36.8 138.569 37.626 135.153 37.626H131.247V48H125.955V18.6ZM135.615 33.342C137.211 33.342 138.429 32.894 139.269 31.998C140.109 31.074 140.529 29.744 140.529 28.008C140.529 26.328 140.081 25.054 139.185 24.186C138.317 23.318 137.029 22.884 135.321 22.884H131.247V33.342H135.615ZM162.532 42.624H151.99L150.352 48H144.766L154.888 18.6H159.634L169.756 48H164.17L162.532 42.624ZM161.23 38.382L157.282 25.53L153.292 38.382H161.23ZM183.771 48.42C181.083 48.42 178.731 47.804 176.715 46.572C174.727 45.34 173.187 43.59 172.095 41.322C171.003 39.026 170.457 36.352 170.457 33.3C170.457 30.22 171.003 27.546 172.095 25.278C173.187 23.01 174.741 21.26 176.757 20.028C178.773 18.796 181.139 18.18 183.855 18.18C186.123 18.18 188.111 18.614 189.819 19.482C191.527 20.35 192.787 21.568 193.599 23.136L190.575 25.866C189.063 23.598 186.837 22.464 183.897 22.464C181.293 22.464 179.291 23.402 177.891 25.278C176.491 27.126 175.791 29.8 175.791 33.3C175.791 36.772 176.477 39.446 177.849 41.322C179.221 43.198 181.181 44.136 183.729 44.136C186.837 44.136 189.119 42.988 190.575 40.692L193.599 43.422C192.787 45.018 191.527 46.25 189.819 47.118C188.111 47.986 186.095 48.42 183.771 48.42ZM215.204 48L206.888 34.35L203.024 39.054V48H197.69V18.6H203.024V32.082L213.482 18.6H219.698L210.374 30.024L221.042 48H215.204Z" fill="white"/>
<path d="M5.58221 38.0506L11.425 15.7217C11.6063 15.0321 12.2711 14.6092 12.9159 14.7754L22.7277 17.3375L22.7226 17.3425L20.0632 27.5002C19.9272 28.0137 20.3805 28.4919 20.8993 28.3912L23.5285 27.7116C23.8509 27.5556 24.2337 27.6563 24.4402 27.9482L26.4197 29.8408C26.8226 30.1831 27.4472 29.9818 27.5832 29.4684L30.2426 19.3056L40.0494 21.8677C40.6941 22.0388 41.0719 22.7335 40.8905 23.418L35.0478 45.752C34.8665 46.4365 34.1966 46.8594 33.5518 46.6933L6.41833 39.6009C5.77865 39.4298 5.40088 38.7402 5.58221 38.0506Z" fill="white"/>
<path d="M1.64346 46.4263L32.9122 54.6008L42.17 48.7418L52.566 9.02686L61.0078 4.08893C62.0555 3.47483 62.408 2.13088 61.7935 1.0839C61.1841 0.0419479 59.8392 -0.310401 58.7916 0.298661L49.559 5.69968C49.0251 6.01679 48.6725 6.52014 48.5365 7.07887C48.5365 7.09397 48.5265 7.10405 48.5265 7.11915L37.8433 47.9313L37.0072 51.1327L34.0254 50.3525L2.75158 42.183C1.57799 41.876 0.379215 42.5756 0.0719681 43.7484C-0.235283 44.9213 0.469875 46.1193 1.64346 46.4263Z" fill="white"/>
<path d="M33.0733 52.3707C33.2698 51.6207 33.5972 50.9462 34.0253 50.3523C34.937 49.0838 36.312 48.218 37.8432 47.9311C38.6995 47.7701 39.6061 47.7902 40.5027 48.0268C41.1071 48.1828 41.6662 48.4295 42.1699 48.7416C44.3861 50.1107 45.5496 52.8036 44.8545 55.4513C44.0033 58.703 40.6739 60.651 37.4201 59.8003C34.9168 59.1459 33.1892 57.0218 32.9122 54.6006C32.8316 53.8758 32.8769 53.1208 33.0733 52.3707ZM38.3822 56.1308C39.6112 56.453 40.8653 55.7181 41.1827 54.4949C41.3187 53.9714 41.2633 53.4429 41.0618 52.9849C40.7898 52.3657 40.2458 51.8775 39.5457 51.6912C38.3167 51.3741 37.0625 52.109 36.7402 53.3322C36.4833 54.3339 36.9215 55.3557 37.7627 55.8691C37.949 55.9849 38.1606 56.0755 38.3822 56.1308Z" fill="white"/>
</svg>
