<svg width="53" height="52" viewBox="0 0 53 52" fill="none" xmlns="http://www.w3.org/2000/svg">
<path d="M9.19561 50.9999C13.3978 50.9999 16.8043 47.5933 16.8043 43.3912C16.8043 39.189 13.3978 35.7825 9.19561 35.7825C4.99344 35.7825 1.58691 39.189 1.58691 43.3912C1.58691 47.5933 4.99344 50.9999 9.19561 50.9999Z" stroke="white" stroke-width="2" stroke-miterlimit="10" stroke-linejoin="round"/>
<path d="M7.02174 35.7826V6.43478C7.02174 3.43478 4.58696 1 1.58696 1H0.5" stroke="white" stroke-width="2" stroke-miterlimit="10" stroke-linejoin="round"/>
<path d="M16.8043 45.5654H51.5869L48.3261 51.0002" stroke="white" stroke-width="2" stroke-miterlimit="10" stroke-linejoin="round"/>
<path d="M8.10876 43.3911H10.2827" stroke="white" stroke-width="2" stroke-miterlimit="10" stroke-linejoin="round"/>
<path d="M32.0217 10.7827H16.8043V21.6523L24.413 18.3914L32.0217 21.6523V10.7827Z" stroke="white" stroke-width="2" stroke-miterlimit="10" stroke-linejoin="round"/>
<path d="M16.2283 45.5653H41.8043V10.7827H7.02173V36.3588" stroke="white" stroke-width="2" stroke-miterlimit="10" stroke-linejoin="round"/>
<path d="M26.5869 41.2173H34.1956" stroke="white" stroke-width="2" stroke-miterlimit="10" stroke-linejoin="round"/>
<path d="M26.5869 36.8696H38.5434" stroke="white" stroke-width="2" stroke-miterlimit="10" stroke-linejoin="round"/>
</svg>
