<svg width="53" height="52" viewBox="0 0 53 52" fill="none" xmlns="http://www.w3.org/2000/svg">
<path d="M15.2174 45.5649H13.0435" stroke="#7A7A7A" stroke-width="2" stroke-miterlimit="10" stroke-linejoin="round"/>
<path d="M14.1305 50.9999C17.132 50.9999 19.5652 48.5666 19.5652 45.5651C19.5652 42.5635 17.132 40.1303 14.1305 40.1303C11.1289 40.1303 8.69568 42.5635 8.69568 45.5651C8.69568 48.5666 11.1289 50.9999 14.1305 50.9999Z" stroke="#7A7A7A" stroke-width="2" stroke-miterlimit="10" stroke-linejoin="round"/>
<path d="M41.3043 45.5649H39.1304" stroke="#7A7A7A" stroke-width="2" stroke-miterlimit="10" stroke-linejoin="round"/>
<path d="M26.087 1H11.9565" stroke="#7A7A7A" stroke-width="2" stroke-miterlimit="10" stroke-linejoin="round"/>
<path d="M40.2174 50.9999C43.219 50.9999 45.6522 48.5666 45.6522 45.5651C45.6522 42.5635 43.219 40.1303 40.2174 40.1303C37.2159 40.1303 34.7827 42.5635 34.7827 45.5651C34.7827 48.5666 37.2159 50.9999 40.2174 50.9999Z" stroke="#7A7A7A" stroke-width="2" stroke-miterlimit="10" stroke-linejoin="round"/>
<path d="M45.6522 46.6518H48.9131C50.1196 46.6518 51.087 45.6736 51.087 44.4779V33.6084C51.087 32.4127 50.1196 31.4345 48.9131 31.4345L45.9022 15.804C45.7065 14.7823 44.8044 14.0432 43.7718 14.0432H31.5218C30.3152 14.0432 29.3478 15.0214 29.3478 16.2171V46.6518H34.7826" stroke="#7A7A7A" stroke-width="2" stroke-miterlimit="10" stroke-linejoin="round"/>
<path d="M0 46.6519H8.69565" stroke="#7A7A7A" stroke-width="2" stroke-miterlimit="10" stroke-linejoin="round"/>
<path d="M19.5652 46.652H29.3479V9.69549C29.3479 8.49984 28.3696 7.52158 27.1739 7.52158H8.69568" stroke="#7A7A7A" stroke-width="2" stroke-miterlimit="10" stroke-linejoin="round"/>
<path d="M48.9131 31.4345H40.2174C39.0109 31.4345 38.0435 30.4562 38.0435 29.2605V14.0432" stroke="#7A7A7A" stroke-width="2" stroke-miterlimit="10" stroke-linejoin="round"/>
<path d="M17.3913 34.6956H3.26086" stroke="#7A7A7A" stroke-width="2" stroke-miterlimit="10" stroke-linejoin="round"/>
<path d="M13.0435 28.1741H0" stroke="#7A7A7A" stroke-width="2" stroke-miterlimit="10" stroke-linejoin="round"/>
<path d="M4.34783 20.5656H2.17392" stroke="#7A7A7A" stroke-width="2" stroke-miterlimit="10" stroke-linejoin="round"/>
<path d="M21.7392 20.5656H6.52176" stroke="#7A7A7A" stroke-width="2" stroke-miterlimit="10" stroke-linejoin="round"/>
<path d="M16.3043 15.1301H0" stroke="#7A7A7A" stroke-width="2" stroke-miterlimit="10" stroke-linejoin="round"/>
<path d="M6.52172 7.52158H4.34781" stroke="#7A7A7A" stroke-width="2" stroke-miterlimit="10" stroke-linejoin="round"/>
</svg>
