<svg width="14" height="18" viewBox="0 0 14 18" fill="none" xmlns="http://www.w3.org/2000/svg">
<path fill-rule="evenodd" clip-rule="evenodd" d="M7.21879 0.636719C2.42025 0.637952 0 3.96279 0 6.7374C0 7.24939 0.0617286 7.74534 0.187681 8.20181C0.471691 9.24059 1.08788 10.0807 2.0671 10.4681C2.30048 10.5582 2.50793 10.4718 2.57337 10.2239C2.6203 10.0524 2.73019 9.62057 2.78082 9.43921C2.84626 9.19494 2.82157 9.10982 2.63511 8.89638C2.39062 8.61757 2.20168 8.28817 2.08684 7.88598C2.01028 7.61826 1.96707 7.32094 1.96707 6.98044C1.96707 4.51179 3.87858 2.30222 6.94095 2.30222C9.65386 2.30222 11.1443 3.90481 11.1443 6.04405C11.1443 6.67571 11.0801 7.28393 10.9591 7.84773C10.5368 9.80439 9.42789 11.2367 7.94487 11.2367C6.88662 11.2367 6.09509 10.3941 6.34823 9.35656C6.49394 8.76561 6.70263 8.15616 6.88168 7.58002C7.07926 6.94713 7.24101 6.35865 7.24101 5.89107C7.24101 5.09287 6.79648 4.42543 5.879 4.42543C4.79853 4.42543 3.92921 5.50492 3.92921 6.95206C3.92921 7.22471 3.95762 7.46899 3.99713 7.68118C4.09221 8.187 4.2515 8.4979 4.2515 8.4979C4.2515 8.4979 3.14509 13.0244 2.95122 13.8189C2.56596 15.3993 2.89319 17.3349 2.92035 17.5299C2.9364 17.6446 3.092 17.673 3.15992 17.5854C3.25994 17.4583 4.54786 15.9236 4.98499 14.3901C5.10847 13.9546 5.69502 11.7055 5.69502 11.7055C6.04694 12.352 7.07185 12.9207 8.16343 12.9207C10.8084 12.9207 12.7595 11.0233 13.3929 8.24745C13.5374 7.61456 13.614 6.93726 13.614 6.22788C13.6152 3.33484 11.0764 0.636719 7.21879 0.636719Z" fill="white"/>
</svg>
