<svg width="52" height="52" viewBox="0 0 52 52" fill="none" xmlns="http://www.w3.org/2000/svg">
<path d="M3.17392 40.1303H14.0435" stroke="#7A7A7A" stroke-width="2" stroke-miterlimit="10" stroke-linejoin="round"/>
<path d="M10.7826 45.5649H21.6522" stroke="#7A7A7A" stroke-width="2" stroke-miterlimit="10" stroke-linejoin="round"/>
<path d="M5.34781 50.9996H18.3913" stroke="#7A7A7A" stroke-width="2" stroke-miterlimit="10" stroke-linejoin="round"/>
<path d="M32.5218 41.2172C32.5218 41.2172 32.3478 48.0759 27.087 50.9998" stroke="#7A7A7A" stroke-width="2" stroke-miterlimit="10" stroke-linejoin="round"/>
<path d="M43.3913 41.2172C43.3913 41.2172 43.5652 48.0759 48.8261 50.9998" stroke="#7A7A7A" stroke-width="2" stroke-miterlimit="10" stroke-linejoin="round"/>
<path d="M51 26.9997C51 35.4019 45.163 43.391 37.9565 43.391C30.75 43.391 24.913 35.4128 24.913 26.9997C24.913 18.5976 30.75 12.9562 37.9565 12.9562C45.163 12.9562 51 18.5976 51 26.9997Z" stroke="#7A7A7A" stroke-width="2" stroke-miterlimit="10" stroke-linejoin="round"/>
<path d="M51 22.7393C51 22.7393 43.6739 24.7393 37.9565 22.7393C35.2065 21.7719 31.6304 21.4675 29.2609 21.6523" stroke="#7A7A7A" stroke-width="2" stroke-miterlimit="10" stroke-linejoin="round"/>
<path d="M23.8261 34.6957H1V1H37.9565V10.7826" stroke="#7A7A7A" stroke-width="2" stroke-miterlimit="10" stroke-linejoin="round"/>
<path d="M17.3043 21.6525H6.43478V29.2612H17.3043V21.6525Z" stroke="#7A7A7A" stroke-width="2" stroke-miterlimit="10" stroke-linejoin="round"/>
<path d="M26 11.8696L19.4783 8.6087L12.9565 11.8696V1H26V11.8696Z" stroke="#7A7A7A" stroke-width="2" stroke-miterlimit="10" stroke-linejoin="round"/>
</svg>
