<svg width="38" height="37" viewBox="0 0 38 37" fill="none" xmlns="http://www.w3.org/2000/svg">
<path d="M9.44907 32.1956H7.91287" stroke="#7A7A7A" stroke-width="2" stroke-miterlimit="10" stroke-linejoin="round"/>
<path d="M8.68103 36C10.8021 36 12.5215 34.2967 12.5215 32.1956C12.5215 30.0945 10.8021 28.3912 8.68103 28.3912C6.55998 28.3912 4.84053 30.0945 4.84053 32.1956C4.84053 34.2967 6.55998 36 8.68103 36Z" stroke="#7A7A7A" stroke-width="2" stroke-miterlimit="10" stroke-linejoin="round"/>
<path d="M29.4197 32.1956H27.8835" stroke="#7A7A7A" stroke-width="2" stroke-miterlimit="10" stroke-linejoin="round"/>
<path d="M11.7534 1H7.91287" stroke="#7A7A7A" stroke-width="2" stroke-miterlimit="10" stroke-linejoin="round"/>
<path d="M13.2896 7.84766H8.681" stroke="#7A7A7A" stroke-width="2" stroke-miterlimit="10" stroke-linejoin="round"/>
<path d="M17.8982 17.7394H14.0577" stroke="#7A7A7A" stroke-width="2" stroke-miterlimit="10" stroke-linejoin="round"/>
<path d="M7.9129 17.7394H4.0724" stroke="#7A7A7A" stroke-width="2" stroke-miterlimit="10" stroke-linejoin="round"/>
<path d="M24.043 1H13.2896" stroke="#7A7A7A" stroke-width="2" stroke-miterlimit="10" stroke-linejoin="round"/>
<path d="M34.0283 4.80432H20.2025" stroke="#7A7A7A" stroke-width="2" stroke-miterlimit="10" stroke-linejoin="round"/>
<path d="M28.6516 36C30.7726 36 32.4921 34.2967 32.4921 32.1956C32.4921 30.0945 30.7726 28.3912 28.6516 28.3912C26.5305 28.3912 24.8111 30.0945 24.8111 32.1956C24.8111 34.2967 26.5305 36 28.6516 36Z" stroke="#7A7A7A" stroke-width="2" stroke-miterlimit="10" stroke-linejoin="round"/>
<path d="M32.492 32.9564H34.7963C35.6489 32.9564 36.3325 32.2716 36.3325 31.4347V24.5868C36.3325 23.3238 35.3033 22.3042 34.0282 22.3042H32.492L30.3644 11.3629C30.2261 10.6476 29.5963 10.1302 28.8589 10.1302H22.5067C21.6541 10.1302 20.9705 10.815 20.9705 11.652V32.9564H24.811" stroke="#7A7A7A" stroke-width="2" stroke-miterlimit="10" stroke-linejoin="round"/>
<path d="M12.5215 32.9566H20.9706V24.587H1V31.4349C1 32.2718 1.69129 32.9566 2.5362 32.9566H4.8405" stroke="#7A7A7A" stroke-width="2" stroke-miterlimit="10" stroke-linejoin="round"/>
<path d="M32.492 22.3042H27.1153C26.2627 22.3042 25.5791 21.6194 25.5791 20.7825V10.1302" stroke="#7A7A7A" stroke-width="2" stroke-miterlimit="10" stroke-linejoin="round"/>
<path d="M20.9706 14.6959H10.9853V24.5873H20.9706V14.6959Z" stroke="#7A7A7A" stroke-width="2" stroke-miterlimit="10" stroke-linejoin="round"/>
<path d="M16.362 4.80432H5.6086V14.6957H16.362V4.80432Z" stroke="#7A7A7A" stroke-width="2" stroke-miterlimit="10" stroke-linejoin="round"/>
<path d="M10.9853 14.6959H1V24.5873H10.9853V14.6959Z" stroke="#7A7A7A" stroke-width="2" stroke-miterlimit="10" stroke-linejoin="round"/>
</svg>
