<svg width="21" height="17" viewBox="0 0 21 17" fill="none" xmlns="http://www.w3.org/2000/svg">
<path d="M20.3334 1.95482C19.5856 2.28586 18.7815 2.50961 17.9368 2.61167C18.7985 2.09483 19.4599 1.27705 19.7716 0.304871C18.9648 0.781146 18.073 1.1292 17.1222 1.31631C16.3613 0.505069 15.2769 0 14.0773 0C11.7736 0 9.90478 1.86585 9.90478 4.16741C9.90478 4.49453 9.94144 4.81248 10.0135 5.11735C6.54687 4.94463 3.47315 3.28552 1.4144 0.764138C1.05556 1.38042 0.849953 2.09483 0.849953 2.85896C0.849953 4.3048 1.58596 5.57923 2.7057 6.32897C2.02207 6.30673 1.37904 6.11961 0.815901 5.8069C0.814591 5.82391 0.81459 5.84223 0.81459 5.86055C0.81459 7.87948 2.25258 9.56345 4.16203 9.94814C3.81235 10.0423 3.44434 10.0934 3.06324 10.0934C2.79346 10.0934 2.53284 10.0672 2.27877 10.0175C2.80917 11.674 4.3506 12.8778 6.17623 12.9118C4.74742 14.0305 2.9493 14.6965 0.99532 14.6965C0.657434 14.6965 0.326099 14.6782 0 14.6389C1.84659 15.8218 4.03891 16.5113 6.39495 16.5113C14.0694 16.5113 18.2642 10.1614 18.2642 4.65154C18.2642 4.47098 18.2603 4.29172 18.2524 4.11246C19.067 3.52497 19.7742 2.79092 20.3334 1.95482Z" fill="#A7A7A7"/>
</svg>
