<svg width="38" height="37" viewBox="0 0 38 37" fill="none" xmlns="http://www.w3.org/2000/svg">
<path d="M35.2391 36H3.28262V9.36957L19.2609 1L35.2391 9.36957V36Z" stroke="#FF5E41" stroke-width="2" stroke-miterlimit="10" stroke-linejoin="round"/>
<path d="M30.6739 14.6956H7.84781V35.9999H30.6739V14.6956Z" stroke="#FF5E41" stroke-width="2" stroke-miterlimit="10" stroke-linejoin="round"/>
<path d="M23.0652 28.3912H15.4565V35.9999H23.0652V28.3912Z" stroke="#FF5E41" stroke-width="2" stroke-miterlimit="10" stroke-linejoin="round"/>
<path d="M23.0652 36H30.6739V28.3913H23.0652V36Z" stroke="#FF5E41" stroke-width="2" stroke-miterlimit="10" stroke-linejoin="round"/>
<path d="M7.84783 36H15.4565L15.4565 28.3913H7.84783L7.84783 36Z" stroke="#FF5E41" stroke-width="2" stroke-miterlimit="10" stroke-linejoin="round"/>
<path d="M23.0652 20.7827H15.4565V28.3914H23.0652V20.7827Z" stroke="#FF5E41" stroke-width="2" stroke-miterlimit="10" stroke-linejoin="round"/>
<path d="M7.84783 28.3912H15.4565L15.4565 20.7825H7.84783L7.84783 28.3912Z" stroke="#FF5E41" stroke-width="2" stroke-miterlimit="10" stroke-linejoin="round"/>
<path d="M1 36H37.5217" stroke="#FF5E41" stroke-width="2" stroke-miterlimit="10" stroke-linejoin="round"/>
<path d="M7.08694 10.8914H10.1304" stroke="#FF5E41" stroke-width="2" stroke-miterlimit="10" stroke-linejoin="round"/>
<path d="M12.4131 10.8914H15.4565" stroke="#FF5E41" stroke-width="2" stroke-miterlimit="10" stroke-linejoin="round"/>
<path d="M17.7392 10.8914H20.7826" stroke="#FF5E41" stroke-width="2" stroke-miterlimit="10" stroke-linejoin="round"/>
<path d="M23.0652 10.8914H26.1087" stroke="#FF5E41" stroke-width="2" stroke-miterlimit="10" stroke-linejoin="round"/>
<path d="M28.3914 10.8914H31.4348" stroke="#FF5E41" stroke-width="2" stroke-miterlimit="10" stroke-linejoin="round"/>
</svg>
