<svg width="17" height="18" viewBox="0 0 17 18" fill="none" xmlns="http://www.w3.org/2000/svg">
<path d="M14.7133 17.6225H2.28668C1.0251 17.6225 0 16.5971 0 15.3379V2.92133C0 1.66208 1.02629 0.636719 2.28668 0.636719H14.7133C15.9737 0.636719 17 1.66208 17 2.92133V15.3379C17 16.5983 15.9737 17.6225 14.7133 17.6225ZM2.28668 1.95858C1.75462 1.95858 1.32306 2.39093 1.32306 2.92133V15.3379C1.32306 15.8694 1.75462 16.3006 2.28668 16.3006H14.7133C15.2454 16.3006 15.6769 15.8683 15.6769 15.3379V2.92133C15.6769 2.39093 15.2442 1.95858 14.7133 1.95858H2.28668Z" fill="white"/>
<path fill-rule="evenodd" clip-rule="evenodd" d="M13.4588 9.34968C13.4588 12.0477 11.2702 14.2343 8.56973 14.2343C5.86921 14.2343 3.68066 12.0477 3.68066 9.34968C3.68066 6.65161 5.86921 4.46387 8.56973 4.46387C11.2702 4.46505 13.4588 6.65161 13.4588 9.34968Z" fill="white"/>
<path fill-rule="evenodd" clip-rule="evenodd" d="M14.558 3.98732C14.558 4.51536 14.13 4.94417 13.6003 4.94417C13.0706 4.94417 12.6426 4.51536 12.6426 3.98732C12.6426 3.4581 13.0706 3.0293 13.6003 3.0293C14.1288 3.0293 14.558 3.4581 14.558 3.98732Z" fill="white"/>
</svg>
