<svg width="21" height="18" viewBox="0 0 21 18" fill="none" xmlns="http://www.w3.org/2000/svg">
<path d="M20.3334 2.59154C19.5856 2.92258 18.7815 3.14633 17.9368 3.24838C18.7985 2.73155 19.4599 1.91377 19.7716 0.94159C18.9648 1.41786 18.073 1.76592 17.1222 1.95303C16.3613 1.14179 15.2769 0.636719 14.0773 0.636719C11.7736 0.636719 9.90478 2.50257 9.90478 4.80413C9.90478 5.13124 9.94144 5.4492 10.0135 5.75407C6.54687 5.58135 3.47315 3.92224 1.4144 1.40086C1.05556 2.01714 0.849953 2.73155 0.849953 3.49568C0.849953 4.94152 1.58596 6.21595 2.7057 6.96569C2.02207 6.94345 1.37904 6.75633 0.815901 6.44361C0.814591 6.46062 0.81459 6.47895 0.81459 6.49727C0.81459 8.5162 2.25258 10.2002 4.16203 10.5849C3.81235 10.6791 3.44434 10.7301 3.06324 10.7301C2.79346 10.7301 2.53284 10.7039 2.27877 10.6542C2.80917 12.3107 4.3506 13.5145 6.17623 13.5485C4.74742 14.6672 2.9493 15.3332 0.99532 15.3332C0.657434 15.3332 0.326099 15.3149 0 15.2756C1.84659 16.4585 4.03891 17.148 6.39495 17.148C14.0694 17.148 18.2642 10.7981 18.2642 5.28826C18.2642 5.10769 18.2603 4.92844 18.2524 4.74918C19.067 4.16169 19.7742 3.42764 20.3334 2.59154Z" fill="white"/>
</svg>
