<svg width="62" height="61" viewBox="0 0 62 61" fill="none" xmlns="http://www.w3.org/2000/svg">
<path d="M22.7143 58.82C10.4526 55.2415 1.5 43.9161 1.5 30.5C1.5 14.2109 14.7109 1 31 1" stroke="white" stroke-width="2" stroke-miterlimit="10" stroke-linejoin="round"/>
<path d="M39.2857 2.17993C51.5474 5.75841 60.5 17.0838 60.5 30.4999C60.5 46.7891 47.2891 59.9999 31 59.9999" stroke="white" stroke-width="2" stroke-miterlimit="10" stroke-linejoin="round"/>
<path d="M19.4565 52.3044L23.3044 60.0001H14.3261" stroke="white" stroke-width="2" stroke-miterlimit="10" stroke-linejoin="round"/>
<path d="M42.5435 8.69565L38.6956 1H47.6739" stroke="white" stroke-width="2" stroke-miterlimit="10" stroke-linejoin="round"/>
<path d="M30.9999 51.0215C42.3338 51.0215 51.5217 41.8336 51.5217 30.4998C51.5217 19.1659 42.3338 9.97803 30.9999 9.97803C19.6661 9.97803 10.4782 19.1659 10.4782 30.4998C10.4782 41.8336 19.6661 51.0215 30.9999 51.0215Z" stroke="white" stroke-width="2" stroke-miterlimit="10" stroke-linejoin="round"/>
<path d="M31 51.0215C36.6669 51.0215 41.2609 41.8336 41.2609 30.4998C41.2609 19.1659 36.6669 9.97803 31 9.97803C25.3331 9.97803 20.7392 19.1659 20.7392 30.4998C20.7392 41.8336 25.3331 51.0215 31 51.0215Z" stroke="white" stroke-width="2" stroke-miterlimit="10" stroke-linejoin="round"/>
<path d="M10.4782 30.5005H51.5217" stroke="white" stroke-width="2" stroke-miterlimit="10" stroke-linejoin="round"/>
<path d="M12.4021 21.5215H49.5978" stroke="white" stroke-width="2" stroke-miterlimit="10" stroke-linejoin="round"/>
<path d="M12.4021 39.4785H49.5978" stroke="white" stroke-width="2" stroke-miterlimit="10" stroke-linejoin="round"/>
<path d="M31 9.97803V51.0215" stroke="white" stroke-width="2" stroke-miterlimit="10" stroke-linejoin="round"/>
</svg>
