<svg width="19" height="20" viewBox="0 0 19 20" fill="none" xmlns="http://www.w3.org/2000/svg">
<path d="M9.49824 0.636719C4.2614 0.636719 0 4.89425 0 10.1275C0 15.362 4.2614 19.6195 9.49824 19.6195C14.7374 19.6195 19 15.362 19 10.1275C19 4.89425 14.7386 0.636719 9.49824 0.636719ZM18.0927 10.2978C15.7857 9.82693 13.7843 9.86333 12.0649 10.2156C11.8076 9.49933 11.4738 8.78074 11.093 8.07624C13.4129 7.21323 15.0406 6.00501 15.9538 4.46215C17.2865 5.97566 18.0963 7.95765 18.0963 10.1263C18.0974 10.185 18.0939 10.2402 18.0927 10.2978ZM15.3004 3.79288C14.4166 5.45198 12.6514 6.551 10.6394 7.27898C9.25261 4.95413 7.50035 2.92047 6.67768 2.01519C7.56263 1.70638 8.51222 1.5373 9.49824 1.5373C11.7324 1.53848 13.769 2.39327 15.3004 3.79288ZM5.78685 2.38271C6.41677 3.06372 8.28657 5.16431 9.75679 7.57135C6.28985 8.61753 2.38808 8.6962 1.02481 8.68681C1.49961 5.90286 3.31533 3.56861 5.78685 2.38271ZM0.902585 10.1275C0.902585 9.94669 0.909641 9.76705 0.921393 9.58975C1.02599 9.59209 1.14468 9.59209 1.28336 9.59209C2.44802 9.59209 4.74912 9.52517 7.24649 9.0872C8.33123 8.89816 9.3196 8.65746 10.2245 8.37448C10.6006 9.05432 10.9297 9.74708 11.1823 10.4316C6.71293 11.6892 4.34366 15.0402 3.57154 16.3436C1.92973 14.7749 0.902585 12.5698 0.902585 10.1275ZM4.26375 16.9342C4.84784 15.8657 7.02085 12.4606 11.4538 11.2618C12.5668 14.9463 12.7901 16.7252 12.9276 18.0038C11.8769 18.4618 10.717 18.7177 9.49824 18.7177C7.52973 18.7177 5.71399 18.052 4.26375 16.9342ZM13.7878 17.5682C13.6409 16.2837 13.3636 14.4755 12.3353 11.0598C13.9524 10.7522 15.8421 10.7416 18.0257 11.2054C17.6849 13.9248 16.0654 16.252 13.7878 17.5682Z" fill="white"/>
</svg>
